Coordinates
nRows=9
nColumns=24

# SIMM Motion File Header:
name Coordinates
datacolumns 24
datarows 9
otherdata 1
range 0.00000000 0.13333333

Units are S.I. units (second, meters, Newtons, ...)
Angles are in degrees.

endheader
time	pelvis_tilt	pelvis_list	pelvis_rotation	pelvis_tx	pelvis_ty	pelvis_tz	hip_flexion_r	hip_adduction_r	hip_rotation_r	knee_angle_r	ankle_angle_r	subtalar_angle_r	mtp_angle_r	hip_flexion_l	hip_adduction_l	hip_rotation_l	knee_angle_l	ankle_angle_l	subtalar_angle_l	mtp_angle_l	lumbar_extension	lumbar_bending	lumbar_rotation
      0.00000000	      5.48657026	     -5.11526955	     -4.34120810	      0.60818650	      1.01502999	      0.04110336	    -20.94098648	      4.40568959	      2.07856468	    -10.75807235	     15.60404661	      8.67311348	      0.00000000	     17.70214297	     -7.09203389	     -8.87033688	     -3.48644253	     -0.51288912	      8.37144988	      0.00000000	    -20.71197769	      2.87250580	      4.00400483
      0.01666667	      4.88579360	     -4.61572287	     -4.57430252	      0.60877823	      1.01372810	      0.03850567	    -20.20867098	      3.44567508	      1.16690906	    -13.19551717	     16.22781932	     10.47367996	      0.00000000	     18.45233263	     -6.34718168	     -7.65685491	     -5.34932141	     -2.34414643	      6.51502485	      0.00000000	    -19.98070412	      2.14527329	      3.94722417
      0.03333333	      4.46127731	     -4.07626075	     -4.56703657	      0.61027724	      1.01272281	      0.03528758	    -19.79416228	      2.46594393	      0.23753359	    -15.40792072	     16.40165237	     12.03649943	      0.00000000	     18.98929244	     -5.49460156	     -6.98628609	     -7.26207683	     -3.88017767	      5.54565871	      0.00000000	    -19.37475656	      1.42219788	      3.68758205
      0.05000000	      4.08455960	     -3.59974686	     -4.83946591	      0.61187993	      1.01203903	      0.03266335	    -19.18159838	      1.51492946	     -0.04064752	    -18.06852961	     16.24701260	     13.00854240	      0.00000000	     19.50104341	     -4.89980697	     -6.80671579	     -9.44374163	     -4.87668423	      4.97703968	      0.00000000	    -18.85663160	      0.54257853	      3.47684484
      0.06666667	      4.20663428	     -3.13233968	     -4.87875054	      0.61440692	      1.01253115	      0.03018385	    -19.04977014	      0.64492080	     -0.36793174	    -20.79823584	     15.42594834	     13.63969674	      0.00000000	     19.45435878	     -4.29572168	     -6.49691150	    -11.78485385	     -5.24110439	      4.53196601	      0.00000000	    -18.70194210	     -0.34282020	      3.27761413
      0.08333333	      4.26168066	     -2.61749434	     -4.68431443	      0.61715234	      1.01348752	      0.02694881	    -18.43001271	     -0.23370279	     -1.00901650	    -24.21434189	     14.10407894	     14.14776004	      0.00000000	     19.08313089	     -3.46523010	     -5.56352435	    -13.39174915	     -5.50669563	      3.34035446	      0.00000000	    -18.52396481	     -1.16911253	      3.12624397
      0.10000000	      4.49062867	     -2.05542575	     -4.67601668	      0.62002776	      1.01494825	      0.02373345	    -17.41567786	     -1.25969758	     -1.50100254	    -28.51275907	     12.15647044	     14.28770774	      0.00000000	     18.57544280	     -2.76846187	     -5.66128317	    -15.36533063	     -4.90414896	      3.45760805	      0.00000000	    -18.48245743	     -2.07304764	      2.94715938
      0.11666667	      4.76857464	     -1.65732310	     -4.28861217	      0.62270196	      1.01707313	      0.01991494	    -16.12143484	     -2.01503075	     -2.31899119	    -33.10700092	      9.08350736	     13.66741175	      0.00000000	     17.77096198	     -2.11877575	     -5.57588610	    -16.83186967	     -4.12909543	      3.80817601	      0.00000000	    -18.49536462	     -2.63143765	      2.38861689
      0.13333333	      4.81335223	     -1.27880851	     -4.20237619	      0.62475617	      1.01912139	      0.01672985	    -13.91617013	     -2.84243381	     -2.94848574	    -38.38660441	      5.16674039	     12.33147309	      0.00000000	     16.93970923	     -1.59945807	     -5.88420290	    -17.82431906	     -3.14987492	      4.30853179	      0.00000000	    -18.34385831	     -3.28114330	      2.07328834
